# xmcd
#
# Track frame offsets: 
#        150
#        13760
#        28638
#        40582
#        56764
#        69639
#        88112
#        102337
#
# Disc length: 1544 seconds
#
# Revision: 1
# Processed by: cddbd v1.5.2PL0 Copyright (c) Steve Scherf et al.
# Submitted via: ExactAudioCopy v1.0b3
#
DISCID=64060608
DTITLE=Various Artist - Spomanin
DYEAR=2013
DGENRE=Country
TTITLE0=Spomanin
TTITLE1=Ç'ka bën për mua
TTITLE2=Afër meje
TTITLE3=I miss u
TTITLE4=Let Kallen
TTITLE5=Pse po ik prej meje
TTITLE6=Qika Qika
TTITLE7=Shut the fuck up
EXTD=
EXTT0=
EXTT1=
EXTT2=
EXTT3=
EXTT4=
EXTT5=
EXTT6=
EXTT7=
PLAYORDER=
